<?xml version="1.0" encoding="utf-8"?>
<!-- Generator: Adobe Illustrator 16.0.0, SVG Export Plug-In . SVG Version: 6.00 Build 0)  -->
<!DOCTYPE svg PUBLIC "-//W3C//DTD SVG 1.1//EN" "http://www.w3.org/Graphics/SVG/1.1/DTD/svg11.dtd">
<svg version="1.1" id="Layer_1" xmlns="http://www.w3.org/2000/svg" xmlns:xlink="http://www.w3.org/1999/xlink" x="0px" y="0px"
	 width="512px" height="512px" viewBox="0 0 512 512" enable-background="new 0 0 512 512" xml:space="preserve">
<g>
	<g>
		
			<linearGradient id="SVGID_1_" gradientUnits="userSpaceOnUse" x1="76.0168" y1="402.6658" x2="392.0911" y2="86.5916" gradientTransform="matrix(1 0 0 -1 24.9448 503.3589)">
			<stop  offset="0" style="stop-color:#FFA300"/>
			<stop  offset="1" style="stop-color:#FF6400"/>
		</linearGradient>
		<path fill="url(#SVGID_1_)" d="M481.598,256.33c0,124.262-100.733,225-225,225s-225-100.738-225-225
			c0-124.267,100.733-225,225-225S481.598,132.063,481.598,256.33z"/>
		
			<linearGradient id="SVGID_2_" gradientUnits="userSpaceOnUse" x1="125.7058" y1="430.5339" x2="337.5989" y2="63.5241" gradientTransform="matrix(1 0 0 -1 24.9448 503.3589)">
			<stop  offset="0" style="stop-color:#FF6400"/>
			<stop  offset="1" style="stop-color:#FFA300"/>
		</linearGradient>
		<circle fill="url(#SVGID_2_)" cx="256.598" cy="256.33" r="211.858"/>
	</g>
</g>
<g opacity="0.3">
	<path d="M334.874,232.241c5.151-5.25,10.159-10.647,15.471-15.727c10.434-9.988,22.427-10.605,30.85-1.811
		c8.276,8.649,7.616,20.043-2.243,30.185c-12.456,12.786-24.858,25.672-37.951,37.786c-6.528,6.026-8.876,12.414-8.516,21.076
		c0.6,13.954,0.281,27.965,0.128,41.949c-0.194,18.058-7.598,25.354-25.653,25.379c-41.075,0.037-82.14,0.037-123.203,0
		c-18.087-0.023-25.471-7.407-25.483-25.477c-0.037-59.225-0.037-118.441,0-177.665c0.006-18.1,7.408-25.557,25.379-25.581
		c34.812-0.049,69.635,0.134,104.45-0.116c9.242-0.067,16.101,3.527,23.239,9.193c16.864,13.386,24.321,29.761,21.51,51.345
		c-1.216,9.321-0.202,18.942-0.202,28.423C333.395,231.55,334.141,231.893,334.874,232.241z M278.688,156.837
		c-2.494-0.36-3.906-0.739-5.317-0.739c-30.637-0.042-61.277,0.072-91.907-0.116c-8.429-0.049-9.572,4.798-9.561,11.577
		c0.085,59.485,0.153,118.979-0.061,178.466c-0.031,8.484,3.111,11.62,11.552,11.491c22.312-0.348,44.615-0.116,66.933-0.116
		c19.327,0,38.668-0.049,57.994,0.013c6.003,0.02,10.703-1.144,10.647-8.631c-0.091-13.937-0.023-27.873-0.023-42.47
		c-10.251,3.362-19.73,6.699-29.353,9.56c-8.563,2.537-12.329-1.51-10.043-10.256c4.321-16.584,10.129-32.213,24.609-43.1
		c4.24-3.179,7.73-7.396,11.387-11.297c1.356-1.454,3.153-3.35,3.185-5.061c0.238-16.522,0.142-33.05,0.142-50.055
		c-10.354,0-19.565-0.386-28.729,0.104c-8.704,0.478-11.767-3.44-11.521-11.638C278.908,175.45,278.688,166.312,278.688,156.837z
		 M321.916,280.523c11.276-10.844,21.668-20.851,32.321-31.094c-2.684-2.995-5.343-5.967-6.81-7.593
		c-11.283,11.016-21.735,21.217-31.735,30.984C317.686,275.285,320.076,278.237,321.916,280.523z M292.686,181.563
		c9.132,0,17.408,0,25.679,0c0.393-0.703,0.771-1.406,1.167-2.104c-8.232-8.044-16.473-16.088-24.699-24.132
		c-0.715,0.643-1.432,1.284-2.146,1.933C292.686,165.156,292.686,173.042,292.686,181.563z M365.473,242.522
		c3.179-7.061,5.478-11.412,6.871-16.045c0.214-0.703-4.487-4.278-5.63-3.753c-4.034,1.871-7.513,4.944-9.749,6.533
		C359.929,233.879,361.854,236.88,365.473,242.522z M303.175,280.352c-2.8,7.336-4.756,12.464-7.5,19.677
		c7.371-3.026,12.347-5.063,18.258-7.476C309.984,288.072,307.319,285.053,303.175,280.352z"/>
	<path d="M238.743,222.876c-14.549,0-29.12,0.41-43.644-0.293c-3.386-0.165-8.863-3.588-9.425-6.319
		c-1.149-5.611,4.089-7.006,8.918-7.018c29.395-0.037,58.796-0.042,88.19,0c4.779,0.012,10.092,1.302,8.967,6.962
		c-0.55,2.738-5.996,6.21-9.364,6.369C267.863,223.286,253.291,222.876,238.743,222.876z"/>
	<path d="M224.892,249.661c-10.085,0-20.183-0.049-30.269,0.024c-4.981,0.037-9.848-1.356-8.955-6.932
		c0.416-2.628,5.458-6.351,8.49-6.437c20.758-0.563,41.541-0.563,62.298,0c3.044,0.085,8.087,3.784,8.521,6.412
		c0.923,5.586-3.954,6.985-8.93,6.95C245.669,249.619,235.283,249.661,224.892,249.661z"/>
	<path d="M224.892,276.446c-10.085,0-20.177-0.049-30.263,0.024c-4.982,0.029-9.847-1.352-8.961-6.927
		c0.41-2.634,5.453-6.362,8.49-6.441c20.752-0.563,41.533-0.563,62.298-0.006c3.038,0.085,8.081,3.776,8.521,6.404
		c0.923,5.595-3.948,6.993-8.918,6.97C245.669,276.403,235.283,276.446,224.892,276.446z"/>
	<path d="M224.874,303.231c-10.086,0-20.178-0.05-30.264,0.018c-4.987,0.037-9.841-1.369-8.942-6.942
		c0.422-2.628,5.464-6.34,8.509-6.418c20.758-0.568,41.54-0.568,62.298,0c3.038,0.078,8.08,3.796,8.502,6.418
		c0.905,5.593-3.967,6.979-8.941,6.942C245.65,303.188,235.259,303.231,224.874,303.231z"/>
	<path d="M264.959,344.271c-6.223,0-12.573,0.715-18.612-0.324c-2.823-0.482-5.055-4.383-7.549-6.735
		c2.408-2.146,4.743-6.026,7.25-6.144c13.007-0.617,26.075-0.611,39.083,0.03c2.457,0.129,4.719,4.102,7.072,6.302
		c-2.563,2.286-4.878,6.112-7.728,6.565C278.113,344.955,271.476,344.271,264.959,344.271z"/>
</g>
<g>
	<path fill="#FFFFFF" d="M344.874,222.241c5.151-5.25,10.159-10.647,15.471-15.727c10.434-9.988,22.427-10.605,30.85-1.811
		c8.276,8.649,7.616,20.043-2.243,30.185c-12.456,12.786-24.858,25.672-37.951,37.786c-6.528,6.026-8.876,12.414-8.516,21.076
		c0.6,13.954,0.281,27.965,0.128,41.949c-0.194,18.058-7.598,25.354-25.653,25.379c-41.075,0.037-82.14,0.037-123.203,0
		c-18.087-0.023-25.471-7.407-25.483-25.477c-0.037-59.225-0.037-118.441,0-177.665c0.006-18.1,7.408-25.557,25.379-25.581
		c34.812-0.049,69.635,0.134,104.45-0.116c9.242-0.067,16.101,3.527,23.239,9.193c16.864,13.386,24.321,29.761,21.51,51.345
		c-1.216,9.321-0.202,18.942-0.202,28.423C343.395,221.55,344.141,221.893,344.874,222.241z M288.688,146.837
		c-2.494-0.36-3.906-0.739-5.317-0.739c-30.637-0.042-61.277,0.072-91.907-0.116c-8.429-0.049-9.572,4.798-9.561,11.577
		c0.085,59.485,0.153,118.979-0.061,178.466c-0.031,8.484,3.111,11.62,11.552,11.491c22.312-0.348,44.615-0.116,66.933-0.116
		c19.327,0,38.668-0.049,57.994,0.013c6.003,0.02,10.703-1.144,10.647-8.631c-0.091-13.937-0.023-27.873-0.023-42.47
		c-10.251,3.362-19.73,6.699-29.353,9.56c-8.563,2.537-12.329-1.51-10.043-10.256c4.321-16.584,10.129-32.213,24.609-43.1
		c4.24-3.179,7.73-7.396,11.387-11.297c1.356-1.454,3.153-3.35,3.185-5.061c0.238-16.522,0.142-33.05,0.142-50.055
		c-10.354,0-19.565-0.386-28.729,0.104c-8.704,0.478-11.767-3.44-11.521-11.638C288.908,165.45,288.688,156.312,288.688,146.837z
		 M331.916,270.523c11.276-10.844,21.668-20.851,32.321-31.094c-2.684-2.995-5.343-5.967-6.81-7.593
		c-11.283,11.016-21.735,21.217-31.735,30.984C327.686,265.285,330.076,268.237,331.916,270.523z M302.686,171.563
		c9.132,0,17.408,0,25.679,0c0.393-0.703,0.771-1.406,1.167-2.104c-8.232-8.044-16.473-16.088-24.699-24.132
		c-0.715,0.643-1.432,1.284-2.146,1.933C302.686,155.156,302.686,163.042,302.686,171.563z M375.473,232.522
		c3.179-7.061,5.478-11.412,6.871-16.045c0.214-0.703-4.487-4.278-5.63-3.753c-4.034,1.871-7.513,4.944-9.749,6.533
		C369.929,223.879,371.854,226.88,375.473,232.522z M313.175,270.352c-2.8,7.336-4.756,12.464-7.5,19.677
		c7.371-3.026,12.347-5.063,18.258-7.476C319.984,278.072,317.319,275.053,313.175,270.352z"/>
	<path fill="#FFFFFF" d="M248.743,212.876c-14.549,0-29.12,0.41-43.644-0.293c-3.386-0.165-8.863-3.588-9.425-6.319
		c-1.149-5.611,4.089-7.006,8.918-7.018c29.395-0.037,58.796-0.042,88.19,0c4.779,0.012,10.092,1.302,8.967,6.962
		c-0.55,2.738-5.996,6.21-9.364,6.369C277.863,213.286,263.291,212.876,248.743,212.876z"/>
	<path fill="#FFFFFF" d="M234.892,239.661c-10.085,0-20.183-0.049-30.269,0.024c-4.981,0.037-9.848-1.356-8.955-6.932
		c0.416-2.628,5.458-6.351,8.49-6.437c20.758-0.563,41.541-0.563,62.298,0c3.044,0.085,8.087,3.784,8.521,6.412
		c0.923,5.586-3.954,6.985-8.93,6.95C255.669,239.619,245.283,239.661,234.892,239.661z"/>
	<path fill="#FFFFFF" d="M234.892,266.446c-10.085,0-20.177-0.049-30.263,0.024c-4.982,0.029-9.847-1.352-8.961-6.927
		c0.41-2.634,5.453-6.362,8.49-6.441c20.752-0.563,41.533-0.563,62.298-0.006c3.038,0.085,8.081,3.776,8.521,6.404
		c0.923,5.595-3.948,6.993-8.918,6.97C255.669,266.403,245.283,266.446,234.892,266.446z"/>
	<path fill="#FFFFFF" d="M234.874,293.231c-10.086,0-20.178-0.05-30.264,0.018c-4.987,0.037-9.841-1.369-8.942-6.942
		c0.422-2.628,5.464-6.34,8.509-6.418c20.758-0.568,41.54-0.568,62.298,0c3.038,0.078,8.08,3.796,8.502,6.418
		c0.905,5.593-3.967,6.979-8.941,6.942C255.65,293.188,245.259,293.231,234.874,293.231z"/>
	<path fill="#FFFFFF" d="M274.959,334.271c-6.223,0-12.573,0.715-18.612-0.324c-2.823-0.482-5.055-4.383-7.549-6.735
		c2.408-2.146,4.743-6.026,7.25-6.144c13.007-0.617,26.075-0.611,39.083,0.03c2.457,0.129,4.719,4.102,7.072,6.302
		c-2.563,2.286-4.878,6.112-7.728,6.565C288.113,334.955,281.476,334.271,274.959,334.271z"/>
</g>
</svg>
