<?xml version="1.0" encoding="utf-8"?>
<!-- Generator: Adobe Illustrator 16.0.0, SVG Export Plug-In . SVG Version: 6.00 Build 0)  -->
<!DOCTYPE svg PUBLIC "-//W3C//DTD SVG 1.1//EN" "http://www.w3.org/Graphics/SVG/1.1/DTD/svg11.dtd">
<svg version="1.1" id="Layer_1" xmlns="http://www.w3.org/2000/svg" xmlns:xlink="http://www.w3.org/1999/xlink" x="0px" y="0px"
	 width="512px" height="512px" viewBox="0 0 512 512" enable-background="new 0 0 512 512" xml:space="preserve">
<g>
	<g>
		<linearGradient id="SVGID_1_" gradientUnits="userSpaceOnUse" x1="99.4707" y1="99.6934" x2="415.5446" y2="415.7672">
			<stop  offset="0" style="stop-color:#0000FF"/>
			<stop  offset="1" style="stop-color:#000083"/>
		</linearGradient>
		<path fill="url(#SVGID_1_)" d="M480.106,255.33c0,124.261-100.733,225-225,225s-225-100.739-225-225
			c0-124.267,100.733-225,225-225S480.106,131.063,480.106,255.33z"/>
		<linearGradient id="SVGID_2_" gradientUnits="userSpaceOnUse" x1="149.1602" y1="71.8257" x2="361.0532" y2="438.8353">
			<stop  offset="0" style="stop-color:#000083"/>
			<stop  offset="1" style="stop-color:#0000FF"/>
		</linearGradient>
		<circle fill="url(#SVGID_2_)" cx="255.106" cy="255.33" r="211.858"/>
	</g>
</g>
<g>
	<path fill-rule="evenodd" clip-rule="evenodd" fill="#FFFFFF" d="M259.636,366.81c-0.874-0.789-1.693-1.65-2.622-2.366
		c-1.724-1.32-2.262-2.964-2.207-5.146c0.153-5.446,0.049-10.904,0.049-16.356c0-2.115,0-4.236,0-6.583c-1.033,0-1.822,0-2.61,0
		c-35.22,0-70.446,0-105.654-0.013c-7.415,0-12.635-3.38-15.556-10.232c-0.104-0.257-0.306-0.482-0.458-0.722
		c0-3.099,0-6.197,0-9.29c0.153-0.245,0.336-0.478,0.452-0.74c2.849-6.767,7.946-10.183,15.287-10.269c1.449-0.019,2.892,0,4.548,0
		c0-1.119,0-1.907,0-2.702c0.019-25.428-0.177-50.855,0.098-76.277c0.275-24.877,21.113-45.428,46.271-45.489
		c18.276-0.043,36.553-0.012,54.835-0.012c0.856,0,1.718,0,2.788,0c0-1.076,0-1.871,0-2.665c0-14.591-0.012-29.181,0.006-43.777
		c0.012-7.549,4.523-13.368,11.84-15.404c0.348-0.091,0.678-0.269,1.008-0.41c19.169,0,38.338,0,57.513,0
		c0.189,0.104,0.367,0.281,0.568,0.324c7.292,1.406,13.276,8.704,12.158,17.06c-1.149,8.576-7.592,13.777-16.693,13.765
		c-10.832-0.012-21.663-0.006-32.506-0.006c-0.789,0-1.577,0-2.458,0c0,10.489,0,20.69,0,31.112c1.039,0,1.907,0,2.781,0
		c14.737,0,29.486-0.073,44.229,0.024c18.998,0.134,35.862,11.559,42.861,29.181c1.589,3.998,2.335,8.325,3.472,12.494
		c0,38.044,0,76.094,0,114.138c-0.434-0.03-0.88-0.091-1.32-0.091c-30.062-0.007-60.128-0.007-90.195,0
		c-0.63,0-1.253,0.109-1.999,0.177c0,6.485-0.257,12.757,0.086,18.997c0.256,4.566-0.446,8.405-4.444,11.113L259.636,366.81z
		 M286.207,222.158c-3.014,0-5.654-0.104-8.283,0.031c-1.876,0.098-2.328-0.618-2.328-2.409c0.049-23.96,0.018-47.916,0.03-71.876
		c0-5.813,3.057-8.82,8.899-8.833c5.526-0.024,11.052,0,16.59,0c6.852,0,13.704,0.024,20.563-0.012
		c3.753-0.024,5.978-2.133,5.861-5.403c-0.109-2.995-2.341-4.902-5.923-4.915c-10.024-0.031-20.043-0.012-30.073-0.012
		c-6.779,0-13.563-0.024-20.343,0.012c-3.881,0.024-5.818,2.005-5.904,5.88c-0.024,0.807-0.013,1.62-0.013,2.433
		c0,27.494,0,54.988,0,82.488c0,0.789,0,1.571,0,2.42c-3.637,0-6.962,0-10.55,0c0-10.409,0-20.605,0-30.764
		c-9.107,0-17.958,0-27.084,0c0.403,0.458,0.568,0.696,0.782,0.88c10.978,9.829,16.186,22.164,16.161,36.852
		c-0.055,24.475-0.024,48.943-0.012,73.417c0,0.855,0.073,1.705,0.11,2.536c41.608,0,82.989,0,124.529,0c0-0.868,0-1.522,0-2.183
		c0-24.987,0.092-49.975-0.03-74.969c-0.104-20.911-16.125-36.681-37.048-36.718c-14.522-0.019-29.046-0.006-43.569,0
		c-0.715,0-1.431,0.067-2.365,0.11C286.207,201.43,286.207,211.571,286.207,222.158z M234.037,304.963c0-0.978,0-1.84,0-2.701
		c0-8.619-0.012-17.25-0.012-25.868c0-16.516,0.11-33.032-0.03-49.542c-0.189-22.573-20.99-39.419-43.173-35.134
		c-17.041,3.301-29.346,17.995-29.419,35.471c-0.098,25.281-0.024,50.574-0.024,75.855c0,0.63,0.11,1.259,0.177,1.919
		C185.742,304.963,209.746,304.963,234.037,304.963z M298.053,315.574c-8.771,0-17.537-0.012-26.309,0
		c-14.07,0.031-28.147,0.092-42.218,0.098c-2.237,0-4.059,0.594-5.171,2.672c-1.693,3.16,0.416,7.481,5.116,7.438
		c14.224-0.11,28.441,0.049,42.652,0.062c17.164,0.024,34.328,0.006,51.504,0.006c14.364,0,28.735-0.03,43.105,0.043
		c1.919,0.012,2.695-0.514,2.512-2.481c-0.146-1.614-0.024-3.246-0.036-4.866c-0.024-2.971-0.024-2.977-3.068-2.977
		C343.45,315.568,320.748,315.568,298.053,315.574z M213.529,315.672c-0.642-0.024-1.437-0.098-2.231-0.098
		c-17.763-0.006-35.526-0.006-53.289,0c-4.059,0-8.117-0.061-12.164,0.037c-3.729,0.092-6.021,3.221-5.006,6.638
		c0.691,2.359,2.671,3.582,5.923,3.582c21.608,0.019,43.197,0.019,64.805,0.019c0.703,0,1.412-0.067,1.962-0.098
		C213.529,322.298,213.529,319.096,213.529,315.672z M275.62,336.363c-3.24,0-6.168-0.056-9.083,0.067
		c-0.435,0.012-1.18,0.867-1.187,1.345c-0.079,5.874-0.098,11.754,0.007,17.634c0.018,0.544,0.929,1.498,1.479,1.541
		c2.415,0.177,4.848,0.152,7.262,0.018c0.532-0.036,1.449-0.837,1.461-1.302C275.65,349.364,275.62,343.057,275.62,336.363z"/>
</g>
</svg>
