<?xml version="1.0" encoding="utf-8"?>
<!-- Generator: Adobe Illustrator 16.0.0, SVG Export Plug-In . SVG Version: 6.00 Build 0)  -->
<!DOCTYPE svg PUBLIC "-//W3C//DTD SVG 1.1//EN" "http://www.w3.org/Graphics/SVG/1.1/DTD/svg11.dtd">
<svg version="1.1" id="Layer_1" xmlns="http://www.w3.org/2000/svg" xmlns:xlink="http://www.w3.org/1999/xlink" x="0px" y="0px"
	 width="512px" height="512px" viewBox="0 0 512 512" enable-background="new 0 0 512 512" xml:space="preserve">
<g>
	<g>
		
			<linearGradient id="SVGID_1_" gradientUnits="userSpaceOnUse" x1="75.6174" y1="402.4939" x2="391.6906" y2="86.4207" gradientTransform="matrix(1 0 0 -1 24.9448 503.3589)">
			<stop  offset="0" style="stop-color:#00B100"/>
			<stop  offset="1" style="stop-color:#006700"/>
		</linearGradient>
		<path fill="url(#SVGID_1_)" d="M481.197,256.501c0,124.262-100.732,225.001-225,225.001c-124.267,0-225-100.739-225-225.001
			c0-124.264,100.733-225,225-225C380.464,31.501,481.197,132.237,481.197,256.501z"/>
		
			<linearGradient id="SVGID_2_" gradientUnits="userSpaceOnUse" x1="125.3054" y1="430.363" x2="337.2008" y2="63.3495" gradientTransform="matrix(1 0 0 -1 24.9448 503.3589)">
			<stop  offset="0" style="stop-color:#006700"/>
			<stop  offset="1" style="stop-color:#00B100"/>
		</linearGradient>
		<path fill="url(#SVGID_2_)" d="M468.056,256.501c0,117.012-94.854,211.864-211.858,211.864
			c-117.004,0-211.858-94.853-211.858-211.864c0-117.005,94.854-211.857,211.857-211.857
			C373.201,44.643,468.056,139.496,468.056,256.501z"/>
	</g>
</g>
<g opacity="0.6">
	<path d="M323.275,146.755c0,13.572,0,26.959,0,40.581c-45.77,0-91.21,0-136.979,0c0-13.505,0-26.889,0-40.563
		c-9.132,0-17.94,0-27.061,0c0,75.721,0,151.567,0,227.839c3.044,0,6.052,0,9.06,0c11.534,0,23.074,0.085,34.607-0.066
		c2.751-0.037,4.254,0.593,5.435,3.307c1.546,3.533,3.881,6.724,6.045,10.349c-23.044,0-45.894,0-69.022,0
		c0-84.994,0-169.994,0-255.458c24.083,0,48.216,0,72.58,0c0.458-11.775,4.896-21.265,13.723-28.48
		c7.273-5.941,15.667-8.513,25.08-8.176c18.515,0.66,31.998,14.535,34.913,36.406c23.998,0,48.038,0,72.402,0
		c0,20.244,0,40.165,0,60.146c-4.413-0.192-8.686-0.379-13.361-0.587c0-14.984,0-30.004,0-45.297
		C341.497,146.755,332.683,146.755,323.275,146.755z M277.401,146.492c0-5.248,0.195-10.04-0.036-14.815
		c-0.702-14.487-14.225-24.438-28.271-20.951c-9.683,2.411-16.626,10.993-17.018,21.305c-0.184,4.75-0.03,9.511-0.03,14.575
		c-11.033,0-21.369,0-31.821,0c0,9.141,0,17.945,0,26.806c36.491,0,72.77,0,108.924,0c0-9.12,0-17.922,0-26.919
		C298.618,146.492,288.367,146.492,277.401,146.492z"/>
	<path d="M353.74,297.143c-3.961-1.511-6.704,1.26-9.693,4.267c-26.021,26.175-52.121,52.274-78.266,78.325
		c-13.093,13.044-33.307,11.296-43.153-3.576c-7.219-10.897-5.893-24.963,3.478-34.578c8.057-8.264,16.303-16.345,24.462-24.511
		c18.833-18.826,37.642-37.689,56.534-56.455c1.858-1.846,2.599-3.581,2.451-6.271c-1.308-24.879,16.455-45.927,40.733-48.493
		c24.512-2.593,46.368,14.435,50.244,39.125C404.84,272.387,382.811,297.332,353.74,297.143z M371.998,224.646
		c-11.425-7.097-24.994-6.625-35.558,1.061c-10.316,7.509-15.379,20.726-12.107,32.922c0.818,3.025-0.03,4.566-1.969,6.498
		c-28.186,28.1-56.319,56.26-84.463,84.413c-0.983,0.979-2.011,1.938-2.873,3.025c-6.229,7.854-2.2,19.396,7.567,21.613
		c5.477,1.247,9.816-0.788,13.686-4.663c28.552-28.631,57.164-57.201,85.746-85.809c1.369-1.369,2.439-2.396,4.842-1.748
		c13.087,3.497,25.973-1.015,33.796-11.516c7.873-10.55,8.417-23.888,1.283-35.963c-7.476,7.481-15.208,14.621-22.193,22.424
		c-4.169,4.651-8.698,3.832-13.394,3.404c-1.547-6.451,0.264-11.079,5.104-15.349C358.66,238.622,365.158,231.492,371.998,224.646z"
		/>
	<path d="M276.222,388.206c4.707-4.62,8.667-8.69,12.879-12.5c0.947-0.854,2.763-1.045,4.181-1.051
		c17.482-0.066,34.957-0.043,52.439-0.043c1.394,0,2.781,0,4.811,0c0-1.461,0-2.787,0-4.106c0-17.738-0.006-35.466,0.007-53.203
		c0-4.39,1.956-6.467,6.217-6.725c2.384-0.146,4.762-0.343,7.396-0.538c0,26.112,0,52.012,0,78.166
		C335.152,388.206,306.222,388.206,276.222,388.206z"/>
	<path d="M297.677,237.629c-27.83,0-55.66,0-83.809,0c0-4.371,0-8.723,0-13.383c29.321,0,58.734,0,88.355,0
		C300.708,228.708,299.217,233.09,297.677,237.629z"/>
	<path d="M213.74,274.074c0-4.621,0-8.875,0-13.374c24.554,0,48.918,0,74.224,0c-4.762,4.706-8.985,8.948-13.313,13.081
		c-0.53,0.501-1.655,0.52-2.506,0.52c-18.881,0.019-37.763,0.019-56.649,0C215.012,274.301,214.522,274.178,213.74,274.074z"/>
	<path d="M213.758,310.847c0-4.688,0-8.948,0-13.533c12.255,0,24.536,0,37.39,0c-4.493,4.522-8.605,8.741-12.83,12.843
		c-0.531,0.521-1.62,0.654-2.45,0.66C228.661,310.865,221.436,310.847,213.758,310.847z"/>
	<path d="M199.865,224.203c0,4.572,0,8.823,0,13.337c-4.493,0-8.839,0-13.441,0c0-4.392,0-8.734,0-13.337
		C190.812,224.203,195.152,224.203,199.865,224.203z"/>
	<path d="M186.393,260.651c4.67,0,8.918,0,13.399,0c0,4.529,0,8.869,0,13.44c-4.48,0-8.827,0-13.399,0
		C186.393,269.612,186.393,265.272,186.393,260.651z"/>
	<path d="M186.362,310.517c0-4.353,0-8.606,0-13.19c4.298,0,8.649,0,13.331,0c0,4.169,0,8.509,0,13.19
		C195.427,310.517,190.989,310.517,186.362,310.517z"/>
</g>
<g>
	<path fill="#FFFFFF" d="M333.275,136.755c0,13.572,0,26.959,0,40.581c-45.77,0-91.21,0-136.979,0c0-13.505,0-26.889,0-40.563
		c-9.132,0-17.94,0-27.061,0c0,75.721,0,151.567,0,227.839c3.044,0,6.052,0,9.06,0c11.534,0,23.074,0.085,34.607-0.066
		c2.751-0.037,4.254,0.593,5.435,3.307c1.546,3.533,3.881,6.724,6.045,10.349c-23.044,0-45.894,0-69.022,0
		c0-84.994,0-169.994,0-255.458c24.083,0,48.216,0,72.58,0c0.458-11.775,4.896-21.265,13.723-28.48
		c7.273-5.941,15.667-8.513,25.08-8.176c18.515,0.66,31.998,14.535,34.913,36.406c23.998,0,48.038,0,72.402,0
		c0,20.244,0,40.165,0,60.146c-4.413-0.192-8.686-0.379-13.361-0.587c0-14.984,0-30.004,0-45.297
		C351.497,136.755,342.683,136.755,333.275,136.755z M287.401,136.492c0-5.248,0.195-10.04-0.036-14.815
		c-0.702-14.487-14.225-24.438-28.271-20.951c-9.683,2.411-16.626,10.993-17.018,21.305c-0.184,4.75-0.03,9.511-0.03,14.575
		c-11.033,0-21.369,0-31.821,0c0,9.141,0,17.945,0,26.806c36.491,0,72.77,0,108.924,0c0-9.12,0-17.922,0-26.919
		C308.618,136.492,298.367,136.492,287.401,136.492z"/>
	<path fill="#FFFFFF" d="M363.74,287.143c-3.961-1.511-6.704,1.26-9.693,4.267c-26.021,26.175-52.121,52.274-78.266,78.325
		c-13.093,13.044-33.307,11.296-43.153-3.576c-7.219-10.897-5.893-24.963,3.478-34.578c8.057-8.264,16.303-16.345,24.462-24.511
		c18.833-18.826,37.642-37.689,56.534-56.455c1.858-1.846,2.599-3.581,2.451-6.271c-1.308-24.879,16.455-45.927,40.733-48.493
		c24.512-2.593,46.368,14.435,50.244,39.125C414.84,262.387,392.811,287.332,363.74,287.143z M381.998,214.646
		c-11.425-7.097-24.994-6.625-35.558,1.061c-10.316,7.509-15.379,20.726-12.107,32.922c0.818,3.025-0.03,4.566-1.969,6.498
		c-28.186,28.1-56.319,56.26-84.463,84.413c-0.983,0.979-2.011,1.938-2.873,3.025c-6.229,7.854-2.2,19.396,7.567,21.613
		c5.477,1.247,9.816-0.788,13.686-4.663c28.552-28.631,57.164-57.201,85.746-85.809c1.369-1.369,2.439-2.396,4.842-1.748
		c13.087,3.497,25.973-1.015,33.796-11.516c7.873-10.55,8.417-23.888,1.283-35.963c-7.476,7.481-15.208,14.621-22.193,22.424
		c-4.169,4.651-8.698,3.832-13.394,3.404c-1.547-6.451,0.264-11.079,5.104-15.349C368.66,228.622,375.158,221.492,381.998,214.646z"
		/>
	<path fill="#FFFFFF" d="M286.222,378.206c4.707-4.62,8.667-8.69,12.879-12.5c0.947-0.854,2.763-1.045,4.181-1.051
		c17.482-0.066,34.957-0.043,52.439-0.043c1.394,0,2.781,0,4.811,0c0-1.461,0-2.787,0-4.106c0-17.738-0.006-35.466,0.007-53.203
		c0-4.39,1.956-6.467,6.217-6.725c2.384-0.146,4.762-0.343,7.396-0.538c0,26.112,0,52.012,0,78.166
		C345.152,378.206,316.222,378.206,286.222,378.206z"/>
	<path fill="#FFFFFF" d="M307.677,227.629c-27.83,0-55.66,0-83.809,0c0-4.371,0-8.723,0-13.383c29.321,0,58.734,0,88.355,0
		C310.708,218.708,309.217,223.09,307.677,227.629z"/>
	<path fill="#FFFFFF" d="M223.74,264.074c0-4.621,0-8.875,0-13.374c24.554,0,48.918,0,74.224,0
		c-4.762,4.706-8.985,8.948-13.313,13.081c-0.53,0.501-1.655,0.52-2.506,0.52c-18.881,0.019-37.763,0.019-56.649,0
		C225.012,264.301,224.522,264.178,223.74,264.074z"/>
	<path fill="#FFFFFF" d="M223.758,300.847c0-4.688,0-8.948,0-13.533c12.255,0,24.536,0,37.39,0
		c-4.493,4.522-8.605,8.741-12.83,12.843c-0.531,0.521-1.62,0.654-2.45,0.66C238.661,300.865,231.436,300.847,223.758,300.847z"/>
	<path fill="#FFFFFF" d="M209.865,214.203c0,4.572,0,8.823,0,13.337c-4.493,0-8.839,0-13.441,0c0-4.392,0-8.734,0-13.337
		C200.812,214.203,205.152,214.203,209.865,214.203z"/>
	<path fill="#FFFFFF" d="M196.393,250.651c4.67,0,8.918,0,13.399,0c0,4.529,0,8.869,0,13.44c-4.48,0-8.827,0-13.399,0
		C196.393,259.612,196.393,255.272,196.393,250.651z"/>
	<path fill="#FFFFFF" d="M196.362,300.517c0-4.353,0-8.606,0-13.19c4.298,0,8.649,0,13.331,0c0,4.169,0,8.509,0,13.19
		C205.427,300.517,200.989,300.517,196.362,300.517z"/>
</g>
</svg>
